<?xml version="1.0" encoding="UTF-8"?>
<svg version="1.1" xmlns="http://www.w3.org/2000/svg" width="588" height="226">
<path d="M0 0 C0.99 0.495 0.99 0.495 2 1 C1.7391976 6.21604792 -0.16796667 8.79268241 -3.30078125 12.69921875 C-6.36616486 16.84981863 -8.60531182 21.43868918 -11 26 C-6.71 26.33 -2.42 26.66 2 27 C2.33 27.99 2.66 28.98 3 30 C0.64072311 32.35927689 -4.49909392 31.98835102 -7.6875 32.0625 C-10.12582948 32.0625 -12.56209857 32.04414711 -15 32 C-15.07992187 32.79535156 -15.15984375 33.59070313 -15.2421875 34.41015625 C-16.23063343 39.09253673 -18.14484513 43.09909062 -20.125 47.4375 C-23.55973885 55.20269697 -26.47450395 62.99844798 -28.9375 71.125 C-29.21932129 72.04724365 -29.50114258 72.9694873 -29.79150391 73.91967773 C-31.64393011 80.21509438 -32.94482356 86.52523114 -34 93 C-33.34 93 -32.68 93 -32 93 C-31.75121094 92.43023437 -31.50242187 91.86046875 -31.24609375 91.2734375 C-29.8103822 88.65405155 -28.11292544 86.79778356 -26.0625 84.625 C-22.26755448 80.48673146 -18.70969814 76.22991434 -15.25 71.8125 C-14.80277588 71.24289551 -14.35555176 70.67329102 -13.89477539 70.08642578 C-9.47441939 64.40627242 -5.25348305 58.78528477 -1.9375 52.375 C2.39462375 44.36112223 2.39462375 44.36112223 5 42 C8.0625 41.4375 8.0625 41.4375 11 42 C12.875 44 12.875 44 14 46 C13.5875 46.804375 13.175 47.60875 12.75 48.4375 C9.12866529 55.8095028 5.99991438 63.35660113 3 71 C6.03126094 71.33448237 6.03126094 71.33448237 7.796875 69.3828125 C11.34077532 65.28606372 14.64248347 61.1717366 17.6875 56.6875 C22.22024281 50.08881318 22.22024281 50.08881318 26 48 C28.8125 48.25 28.8125 48.25 31 49 C32.68637231 54.03892085 31.11883569 57.96469718 29.5625 62.8125 C29.19801758 63.99489258 29.19801758 63.99489258 28.82617188 65.20117188 C28.22772569 67.13732129 27.61524123 69.06912181 27 71 C33.71904755 65.63179839 33.71904755 65.63179839 39 59 C39 56.99971349 38.99681725 54.99786574 38.8984375 53 C39.07851922 49.45377537 40.65338964 47.53186908 43 45 C46.0625 44 46.0625 44 49 44 C49.99 44.66 50.98 45.32 52 46 C51.43945339 49.36327963 50.58158962 51.99112219 49 55 C49.77085937 55.12117188 50.54171875 55.24234375 51.3359375 55.3671875 C52.84027344 55.61855469 52.84027344 55.61855469 54.375 55.875 C55.37273437 56.03742188 56.37046875 56.19984375 57.3984375 56.3671875 C60 57 60 57 62 59 C61.61094997 62.83774775 60.21745419 66.11036839 58.6875 69.625 C56.24508196 75.34764227 54.06741596 81.1326966 52 87 C56.9779904 84.07687773 59.81250537 81.01850216 63 76.25 C63.86883855 74.98632332 64.73862432 73.72329736 65.609375 72.4609375 C66.02123047 71.85862305 66.43308594 71.25630859 66.85742188 70.63574219 C68.24397431 68.65072054 69.73577381 66.76379793 71.25 64.875 C74.34594835 60.84590665 76.3442069 56.35731093 78.41015625 51.734375 C80.21124018 48.63668765 82.09541461 47.06028253 85 45 C85.825 44.401875 86.65 43.80375 87.5 43.1875 C90 42 90 42 92.5625 42.0625 C95.55078443 43.21184017 97.00520962 44.50651202 99 47 C99.75 49.25 99.75 49.25 100 51 C102.31 49.68 104.62 48.36 107 47 C109.4375 48.1875 109.4375 48.1875 112 50 C113.33706107 53.97741904 112.82049101 56.21469222 111.1875 60 C109.05587406 65.40256919 108.12558371 70.60172055 107.39453125 76.34765625 C107 79 107 79 106 81 C107.94999129 80.80528889 107.94999129 80.80528889 110 80 C110.68912445 78.678134 111.3494232 77.34125764 112 76 C113.43584632 73.85454624 114.88793553 71.7341045 116.375 69.625 C117.15416816 68.51338676 117.93281696 67.40140931 118.7109375 66.2890625 C119.09161377 65.74580322 119.47229004 65.20254395 119.86450195 64.64282227 C120.99509909 63.00709056 122.09339511 61.34918778 123.19140625 59.69140625 C124.68839722 57.46370263 126.03758021 55.79177459 128 54 C128.433125 53.4225 128.86625 52.845 129.3125 52.25 C131 51 131 51 134 51 C137 52 137 52 138.86328125 54.16796875 C140 57 140 57 138.98046875 60.11328125 C138.09294922 61.69689453 138.09294922 61.69689453 137.1875 63.3125 C136.60355469 64.38113281 136.01960938 65.44976562 135.41796875 66.55078125 C134.95003906 67.35902344 134.48210937 68.16726562 134 69 C137.48835879 67.41213857 140.42018819 65.33428426 143.5 63.0625 C144.4384375 62.37285156 145.376875 61.68320313 146.34375 60.97265625 C147.98288351 59.75535857 149.59474464 58.49899229 151.15625 57.18359375 C151.7646875 56.79300781 152.373125 56.40242188 153 56 C153.99 56.33 154.98 56.66 156 57 C155.74314196 60.21439484 154.94633118 61.04742826 152.48046875 63.2265625 C151.38885814 64.03427685 150.29074819 64.83325533 149.1875 65.625 C148.00195239 66.5199706 146.81707204 67.41582568 145.6328125 68.3125 C143.34267179 70.02247173 141.02549489 71.68014453 138.6796875 73.3125 C130.56881764 79.32958641 127.66296787 85.24559835 124.79101562 94.54101562 C123.22624022 99.40534213 121.3862795 104.16570383 119.5625 108.9375 C119.04103394 110.3754895 119.04103394 110.3754895 118.5090332 111.8425293 C115.49658845 119.77077688 111.32131329 127.31002173 104 132 C99.7042628 132.55685482 97.53806322 132.28425982 93.6875 130.25 C91.09843287 128.08240892 90.15939115 127.06531709 89 124 C89.21914831 109.91972106 102.67728886 97.06281653 111.95703125 87.87890625 C114 86 114 86 116.875 84.0625 C120.26524961 80.77196361 120.94214141 76.50664961 122 72 C121.5875 72.71285156 121.175 73.42570312 120.75 74.16015625 C117.05767392 80.28381313 113.37391337 86.38644281 107 90 C103.25 90.25 103.25 90.25 100 89 C96.71790967 85.71790967 95.07246949 83.00305682 94.90234375 78.30078125 C94.91974609 76.82158203 94.91974609 76.82158203 94.9375 75.3125 C94.94652344 74.31863281 94.95554687 73.32476562 94.96484375 72.30078125 C94.97644531 71.54152344 94.98804688 70.78226562 95 70 C94.484375 70.825 93.96875 71.65 93.4375 72.5 C91.60873384 75.21720929 89.64732601 77.78612787 87.5625 80.3125 C87.00691406 80.98925781 86.45132813 81.66601562 85.87890625 82.36328125 C83.59369832 84.35393015 81.98231967 84.68098363 79 85 C76.14649506 84.74822015 75.25705964 84.26624034 73.25 82.1875 C72 80 72 80 72 76 C71.34 76 70.68 76 70 76 C69.75636719 76.55816406 69.51273438 77.11632812 69.26171875 77.69140625 C65.44332514 84.67800261 58.90602476 91.09092938 52 95 C48.31063209 95.65106492 46.82436457 95.53472297 43.6875 93.5 C41.35898673 90.05035071 40.7128369 87.08181832 41 83 C42.88573519 75.57907739 46.43426967 68.73689214 50 62 C47.09894327 61.39561318 45.7745255 61.14184505 43 62 C40.7425765 64.27537518 38.93939163 66.73013692 37.04296875 69.3125 C33.41881363 74.08003102 29.52056705 78.1103881 23.8125 80.125 C20.38729452 79.97276865 18.69637357 79.08005961 16 77 C14.5216774 74.04335481 14.93967217 71.25770263 15 68 C14.55269531 68.51949219 14.10539063 69.03898437 13.64453125 69.57421875 C12.39101491 71.02017256 11.12884776 72.45865973 9.859375 73.890625 C8.39838303 75.54805287 6.97337882 77.23721014 5.5625 78.9375 C2.01915616 81.78945968 -0.50478367 81.77142968 -5 82 C-7.53101025 79.02881405 -8.34820749 76.81583379 -9 73 C-9.68964844 73.95519531 -10.37929687 74.91039063 -11.08984375 75.89453125 C-27.41486328 98.40203134 -27.41486328 98.40203134 -34 103 C-37.57961628 103 -39.38954311 102.4289697 -42.3125 100.375 C-46.08918037 95.05967207 -44.96026465 88.6572625 -44.0625 82.5625 C-43.91264648 81.46518555 -43.91264648 81.46518555 -43.75976562 80.34570312 C-43.51502767 78.56261231 -43.25872147 76.78111558 -43 75 C-45.31 76.98 -47.62 78.96 -50 81 C-54.70005017 79.1922884 -57.51294468 77.73392649 -61 74 C-61.71285156 74.86882812 -62.42570312 75.73765625 -63.16015625 76.6328125 C-77.94182423 94.48193501 -77.94182423 94.48193501 -84.9375 95.375 C-88.67686517 94.91711855 -89.6965709 93.90061443 -92 91 C-93.79452404 87.41095193 -93.50402866 83.66799476 -92.35595703 79.86865234 C-91.48230113 77.61216687 -90.54289663 75.39962781 -89.5625 73.1875 C-89.07426758 72.0437793 -89.07426758 72.0437793 -88.57617188 70.87695312 C-87.43734489 68.22125555 -86.29239035 65.5847807 -85 63 C-85.55429688 62.82984375 -86.10859375 62.6596875 -86.6796875 62.484375 C-92.52881479 60.52772744 -92.52881479 60.52772744 -94.5625 58.25 C-95.1913824 55.01574765 -94.61690569 52.20790956 -94 49 C-98.95 49.495 -98.95 49.495 -104 50 C-105.54971674 53.81201851 -106.98624906 57.65563902 -108.390625 61.5234375 C-108.854749 62.79855724 -109.31902876 64.0736203 -109.78344727 65.34863281 C-110.02330353 66.00754517 -110.26315979 66.66645752 -110.51028442 67.34533691 C-122.07379817 99.07379817 -122.07379817 99.07379817 -125 102 C-128.29714793 101.67028521 -129.6226839 101.3773161 -132 99 C-133.63279772 93.40183638 -132.5834457 90.06057075 -130.203125 84.8203125 C-129.21262959 82.49843689 -128.3982889 80.23612917 -127.62109375 77.83984375 C-125.91130715 72.61169629 -123.87980695 67.53286958 -121.8125 62.4375 C-121.44447266 61.52419922 -121.07644531 60.61089844 -120.69726562 59.66992188 C-119.80056454 57.44563736 -118.90144402 55.22236555 -118 53 C-120.41706304 53.30964862 -122.83361887 53.62261115 -125.25 53.9375 C-126.27287109 54.06801758 -126.27287109 54.06801758 -127.31640625 54.20117188 C-130.60767292 54.63255149 -133.79182119 55.15460153 -137 56 C-137.10376953 56.57105469 -137.20753906 57.14210937 -137.31445312 57.73046875 C-138.6818154 64.92771453 -140.52417835 71.94821814 -142.5 79 C-142.80808594 80.13050781 -143.11617187 81.26101562 -143.43359375 82.42578125 C-143.88412109 84.04033203 -143.88412109 84.04033203 -144.34375 85.6875 C-144.61380859 86.66074219 -144.88386719 87.63398438 -145.16210938 88.63671875 C-146 91 -146 91 -148 93 C-151.07656207 92.83807568 -152.79916796 92.13212634 -155.375 90.4375 C-157.34010347 87.4898448 -157.04466032 85.92512328 -156.53417969 82.51196289 C-155.40985456 77.22485995 -153.63693488 72.12472071 -151.9375 67 C-151.56044922 65.84371094 -151.18339844 64.68742187 -150.79492188 63.49609375 C-149.86970552 60.6618867 -148.93792289 57.83002218 -148 55 C-148.99 54.67 -149.98 54.34 -151 54 C-151.495 52.515 -151.495 52.515 -152 51 C-150.91178955 50.63753174 -149.8235791 50.27506348 -148.70239258 49.90161133 C-145.64270055 48.58088476 -145.03480856 48.05427984 -143.13549805 45.0925293 C-142.68215088 43.93148682 -142.22880371 42.77044434 -141.76171875 41.57421875 C-141.51001419 40.94900833 -141.25830963 40.32379791 -140.99897766 39.67964172 C-140.20480878 37.69067945 -139.44616023 35.69023749 -138.6875 33.6875 C-138.16045392 32.35392597 -137.63117621 31.02123162 -137.09960938 29.68945312 C-134.91433009 24.17255722 -132.873253 18.63077814 -131 13 C-130.22697481 11.21158198 -129.41570073 9.43908655 -128.5625 7.6875 C-128.15128906 6.82511719 -127.74007812 5.96273437 -127.31640625 5.07421875 C-126 3 -126 3 -123 2 C-119.875 3.125 -119.875 3.125 -117 5 C-116.0777758 7.71268874 -115.76049324 9.315508 -116.71484375 12.04296875 C-117.11832031 12.75066406 -117.52179688 13.45835938 -117.9375 14.1875 C-120.55036566 19.06192166 -122.87597964 24.01298929 -125.125 29.0625 C-125.46136475 29.80588623 -125.79772949 30.54927246 -126.14428711 31.31518555 C-128.43023833 36.44883693 -130.31529265 41.63978323 -132 47 C-131.31405762 46.85667236 -130.62811523 46.71334473 -129.92138672 46.56567383 C-124.62411544 45.46487971 -119.37692336 44.59743593 -114 44 C-113.74347656 43.37738281 -113.48695312 42.75476563 -113.22265625 42.11328125 C-111.82460145 38.73817926 -110.41455572 35.36820923 -109 32 C-108.65163086 31.16952148 -108.30326172 30.33904297 -107.94433594 29.48339844 C-106.78049636 26.71591358 -105.60966203 23.95146915 -104.4375 21.1875 C-104.06181885 20.29264893 -103.6861377 19.39779785 -103.29907227 18.47583008 C-101.15314803 13.43485725 -98.82502079 8.69555609 -96 4 C-92.08979564 5.30340145 -89.49891449 6.66811401 -87 10 C-86.33773789 15.3214708 -88.15726999 19.00053425 -90.625 23.5625 C-91.35850464 24.96914934 -92.0902501 26.37671729 -92.8203125 27.78515625 C-93.36993652 28.83727295 -93.36993652 28.83727295 -93.93066406 29.91064453 C-96.46188357 34.85634694 -98.71192567 39.93850223 -101 45 C-99.2709226 45.02725341 -97.54171824 45.04650987 -95.8125 45.0625 C-94.36810547 45.07990234 -94.36810547 45.07990234 -92.89453125 45.09765625 C-90.01203644 45.09499453 -90.01203644 45.09499453 -87.32421875 44.37109375 C-85 44 -85 44 -82 46 C-82.56054661 49.36327963 -83.41841038 51.99112219 -85 55 C-84.31292969 55.10957031 -83.62585938 55.21914062 -82.91796875 55.33203125 C-82.01691406 55.49058594 -81.11585937 55.64914063 -80.1875 55.8125 C-79.29417969 55.96332031 -78.40085937 56.11414063 -77.48046875 56.26953125 C-74.81678744 57.05395393 -73.74309678 57.88627799 -72 60 C-73.57542719 65.65366068 -75.32725612 70.76142199 -78 76 C-79.39873853 79.64381523 -80.70891926 83.31681535 -82 87 C-75.46570683 83.56949609 -72.05874776 78.00829119 -68 72 C-67.51144531 71.31550781 -67.02289063 70.63101563 -66.51953125 69.92578125 C-63.25771276 65.13843534 -61.59830779 60.18707249 -59.9921875 54.63671875 C-58.99069831 51.97528094 -58.26174663 50.68643951 -56 49 C-52.46049143 48.54814784 -50.66673285 48.57890557 -47.625 50.5 C-47.08875 50.995 -46.5525 51.49 -46 52 C-46.9925301 54.49690308 -47.99473217 56.9874566 -49.03515625 59.46484375 C-50.90758248 63.97148179 -52.48430245 68.10087331 -53 73 C-42.07578372 66.14060838 -37.00904695 57.9972226 -33 46 C-32.09392564 43.43368554 -31.1711897 40.87342037 -30.25 38.3125 C-29.49968235 36.20844658 -28.74956819 34.10432053 -28 32 C-28.99 32.495 -28.99 32.495 -30 33 C-32.82213218 33.1959814 -35.64192497 33.31791556 -38.46875 33.42578125 C-41.13144275 33.72492278 -41.13144275 33.72492278 -42.2734375 35.90234375 C-42.51320313 36.59457031 -42.75296875 37.28679687 -43 38 C-43.66666667 39.33333333 -44.33333333 40.66666667 -45 42 C-45.66 42 -46.32 42 -47 42 C-47.33 42.99 -47.66 43.98 -48 45 C-50.0625 45.6875 -50.0625 45.6875 -52 46 C-54 43 -54 43 -54 39 C-53.02149805 37.97895449 -52.02019573 36.9793879 -51 36 C-50.28552357 33.89667109 -50.28552357 33.89667109 -50 32 C-50.66 32 -51.32 32 -52 32 C-52 31.34 -52 30.68 -52 30 C-51.01 30 -50.02 30 -49 30 C-48.67 28.02 -48.34 26.04 -48 24 C-45.1875 23.8125 -45.1875 23.8125 -42 24 C-41.5771875 24.495 -41.154375 24.99 -40.71875 25.5 C-38.07483473 27.80741697 -35.73770288 27.2892387 -32.3125 27.1875 C-31.13300781 27.16042969 -29.95351562 27.13335937 -28.73828125 27.10546875 C-27.38283203 27.05326172 -27.38283203 27.05326172 -26 27 C-25.54109375 26.04738281 -25.0821875 25.09476563 -24.609375 24.11328125 C-23.98991026 22.84619428 -23.37010019 21.5792761 -22.75 20.3125 C-22.44964844 19.68666016 -22.14929688 19.06082031 -21.83984375 18.41601562 C-19.93020482 14.53579185 -17.80799873 11.32328097 -15 8 C-14.319375 6.948125 -13.63875 5.89625 -12.9375 4.8125 C-9.16110976 -0.66935681 -6.10964308 -0.29093538 0 0 Z M92 49 C85.37070247 56.47920747 82.75530785 66.180998 82 76 C88.16128094 71.4612628 92.51929772 65.75302549 96 59 C96.41694627 55.39410206 96.06916018 52.45721138 95 49 C94.01 49 93.02 49 92 49 Z M96 67 C97 69 97 69 97 69 Z M123 68 C124 70 124 70 124 70 Z M-42 72 C-41 74 -41 74 -41 74 Z M115 92 C101.84630624 104.58596129 101.84630624 104.58596129 95.9375 120.6875 C95.958125 121.780625 95.97875 122.87375 96 124 C97.32 124.33 98.64 124.66 100 125 C104.66798127 119.31728354 107.89562802 113.54490159 110.8125 106.8125 C111.20630859 105.93658203 111.60011719 105.06066406 112.00585938 104.15820312 C113.80296602 100.09236494 115.23679542 96.39922181 116 92 C115.67 92 115.34 92 115 92 Z " fill="#FDFDFD" transform="translate(184,52)"/>
<path d="M0 0 C2.70078288 1.49008711 4.03347084 2.39499302 5.8125 5 C8.74347606 19.71349981 -0.10579834 34.78805936 -7.1875 47 C-7.72246094 47.93070313 -8.25742187 48.86140625 -8.80859375 49.8203125 C-11.25213043 53.68290022 -13.8227649 56.5450883 -18.1875 58 C-18.89458359 59.31234714 -19.5557799 60.64975856 -20.1875 62 C-21.27143186 63.36692885 -22.39940142 64.69976753 -23.5625 66 C-24.44035156 66.99 -24.44035156 66.99 -25.3359375 68 C-27.1875 70 -27.1875 70 -29.2734375 71.859375 C-31.64048826 74.50660728 -32.40769715 76.86636205 -33.4375 80.25 C-33.77265625 81.32765625 -34.1078125 82.4053125 -34.453125 83.515625 C-34.81664062 84.74539062 -34.81664062 84.74539062 -35.1875 86 C-34.8575 86.33 -34.5275 86.66 -34.1875 87 C-33.47464844 86.154375 -32.76179687 85.30875 -32.02734375 84.4375 C-30.04959522 82.09195114 -28.06358939 79.7536632 -26.07421875 77.41796875 C-24.39532574 75.4430246 -22.75647357 73.45689022 -21.14453125 71.42578125 C-17.46965303 66.87633246 -15.02186448 64.9525493 -9.1875 64 C-7.1875 65.5625 -7.1875 65.5625 -5.1875 68 C-4.4828171 74.10725181 -6.23443991 77.84570285 -9 83.0625 C-12.80273733 90.6138639 -14.90960126 97.60047807 -16.1875 106 C-11.15500472 101.90478894 -6.62620657 97.46467354 -2.25 92.6875 C-1.7655542 92.15995117 -1.2811084 91.63240234 -0.78198242 91.08886719 C1.80807345 88.25309239 1.80807345 88.25309239 3.8125 85 C4.8025 85.33 5.7925 85.66 6.8125 86 C1.23216554 97.6784319 1.23216554 97.6784319 -1.875 101.875 C-4.25492994 104.85866433 -4.25492994 104.85866433 -5.5625 108.0625 C-7.73799784 111.99513071 -10.37967233 114.61603951 -14.1875 117 C-17.41361464 117.72422982 -19.02993068 117.71401472 -21.859375 115.96875 C-24.6082481 113.82201101 -26.07497949 112.33756153 -27.1875 109 C-28.31292922 97.55813626 -22.92064417 87.16749489 -18.1875 77 C-27.24025399 85.94216188 -33.96303501 95.38902134 -40.25463867 106.44042969 C-41.1875 108 -41.1875 108 -42.1875 109 C-44.625 109.1875 -44.625 109.1875 -47.1875 109 C-49.1875 107 -49.1875 107 -49.3828125 104.3984375 C-49.35960937 103.40070313 -49.33640625 102.40296875 -49.3125 101.375 C-49.29445313 100.37210937 -49.27640625 99.36921875 -49.2578125 98.3359375 C-49.23460937 97.56507812 -49.21140625 96.79421875 -49.1875 96 C-50.54349347 97.03928751 -51.89717779 98.08158787 -53.25 99.125 C-54.00410156 99.70507812 -54.75820313 100.28515625 -55.53515625 100.8828125 C-56.41042969 101.58148438 -57.28570312 102.28015625 -58.1875 103 C-58.73591553 103.32379639 -59.28433105 103.64759277 -59.84936523 103.98120117 C-67.16297879 108.90152444 -68.69244311 118.07545407 -71.125 126.0625 C-79.3170721 152.73209076 -79.3170721 152.73209076 -87.71850586 158.84008789 C-91.38096701 160.56068048 -93.35092263 160.21155075 -97.1875 159 C-100.81689007 156.10947905 -102.8162022 153.03572546 -104.375 148.6875 C-103.80086808 137.39623895 -94.37675513 127.93622863 -86.5625 120.5078125 C-85.93335693 119.90485352 -85.30421387 119.30189453 -84.65600586 118.68066406 C-83.41581496 117.50576309 -82.15937808 116.34770042 -80.88500977 115.20996094 C-76.34044843 110.92633437 -74.92665132 107.17326614 -74.1875 101 C-74.80238281 101.75925781 -75.41726563 102.51851563 -76.05078125 103.30078125 C-76.85902344 104.29464844 -77.66726563 105.28851563 -78.5 106.3125 C-79.30050781 107.29863281 -80.10101563 108.28476563 -80.92578125 109.30078125 C-85.46093083 114.71319638 -85.46093083 114.71319638 -88.5625 115.9375 C-91.1875 116 -91.1875 116 -93.8125 114.5625 C-96.90762599 111.22302196 -97.81815863 108.32423592 -99.1875 104 C-99.85845703 104.55880859 -99.85845703 104.55880859 -100.54296875 105.12890625 C-105.46806206 108.98287053 -105.46806206 108.98287053 -108.8125 109.0625 C-111.83338688 107.71105061 -113.86942403 106.38246697 -116.1875 104 C-117.42859444 99.70390388 -117.27146208 95.44999 -117.1875 91 C-117.1875 90.01 -117.1875 89.02 -117.1875 88 C-117.71859375 88.92683594 -118.2496875 89.85367188 -118.796875 90.80859375 C-119.5097574 92.01861782 -120.22333554 93.22823217 -120.9375 94.4375 C-121.28554688 95.04916016 -121.63359375 95.66082031 -121.9921875 96.29101562 C-124.65791016 100.75856934 -124.65791016 100.75856934 -127.3125 101.96875 C-129.726622 102.00898537 -131.14694565 101.238908 -133.1875 100 C-133.538125 100.7425 -133.88875 101.485 -134.25 102.25 C-136.6846369 105.70561367 -139.07186415 107.83376233 -143.1875 109 C-147.75399868 107.91642404 -149.66729475 106.64025261 -152.625 103 C-154.1875 100 -154.1875 100 -154.1875 97 C-154.88617188 97.433125 -155.58484375 97.86625 -156.3046875 98.3125 C-157.21476562 98.869375 -158.12484375 99.42625 -159.0625 100 C-159.96742188 100.556875 -160.87234375 101.11375 -161.8046875 101.6875 C-164.1875 103 -164.1875 103 -166.1875 103 C-165.8575 103.99 -165.5275 104.98 -165.1875 106 C-164.60807063 113.82903407 -165.41702761 120.52578748 -170.1875 127 C-174.48172924 130.59516867 -178.58122791 132.25390725 -184.1875 132 C-188.70863782 131.17063543 -192.14759361 130.16595565 -195.25 126.6875 C-196.41916357 123.33589778 -196.81103665 121.53337433 -196.1875 118 C-192.98213501 111.8406712 -188.07899494 108.17173155 -182.359375 104.4453125 C-180.10250369 103.04629069 -180.10250369 103.04629069 -178.1875 101 C-178.496875 100.05125 -178.80625 99.1025 -179.125 98.125 C-180.4471232 93.45537339 -180.86464474 88.82879173 -181.1875 84 C-181.28804688 83.05125 -181.38859375 82.1025 -181.4921875 81.125 C-181.97476393 74.02147495 -181.97476393 74.02147495 -179.625 70.97265625 C-177.87882203 69.47643521 -176.15351332 68.18863561 -174.1875 67 C-172.5375 67.66 -170.8875 68.32 -169.1875 69 C-169.14495644 70.99954746 -169.14669217 73.00041636 -169.1875 75 C-169.5175 75.33 -169.8475 75.66 -170.1875 76 C-170.12189053 77.67005933 -169.98337725 79.33741053 -169.8125 81 C-169.66361328 82.47919922 -169.66361328 82.47919922 -169.51171875 83.98828125 C-169.40472656 84.98214844 -169.29773438 85.97601563 -169.1875 87 C-169.09082031 87.90105469 -168.99414062 88.80210938 -168.89453125 89.73046875 C-168.66520225 91.82101863 -168.42726477 93.91062128 -168.1875 96 C-159.21175027 92.68406094 -159.21175027 92.68406094 -152.4375 86.37890625 C-151.40626878 83.73814237 -151.40626878 83.73814237 -150.765625 81.13671875 C-150.1875 79 -150.1875 79 -148.1875 77 C-144.23591529 76.65638394 -141.58214446 76.91098803 -138.1875 79 C-138.96762807 83.89353065 -140.89061881 87.85064126 -143.03125 92.28125 C-144.13485993 94.87622469 -144.74494891 97.22399773 -145.1875 100 C-141.14663417 98.61456029 -138.27171304 96.97250139 -135.1875 94 C-134.14954911 91.43972113 -133.37377674 89.14630811 -132.6875 86.5 C-132.2820676 85.07156745 -131.87184668 83.644486 -131.45703125 82.21875 C-131.25158691 81.51105469 -131.04614258 80.80335937 -130.83447266 80.07421875 C-129.32704383 75.24134504 -127.24364757 70.61976986 -125.1875 66 C-121.8125 65.875 -121.8125 65.875 -118.1875 66 C-117.5275 66.66 -116.8675 67.32 -116.1875 68 C-116.55412916 71.16217654 -117.88772221 73.24363112 -119.6875 75.8125 C-122.17308025 79.63040857 -122.90507804 82.48124862 -123.1875 87 C-122.36958984 85.96939453 -122.36958984 85.96939453 -121.53515625 84.91796875 C-118.93408401 81.68502206 -116.29224868 78.49088136 -113.625 75.3125 C-113.14353516 74.73177734 -112.66207031 74.15105469 -112.16601562 73.55273438 C-109.96119634 70.92939369 -108.05801947 68.91367965 -105.1875 67 C-102.625 67.1875 -102.625 67.1875 -100.1875 68 C-97.7580484 71.6441774 -98.02570425 73.71241272 -98.1875 78 C-98.8475 78 -99.5075 78 -100.1875 78 C-100.435 78.53625 -100.6825 79.0725 -100.9375 79.625 C-102.1875 82 -102.1875 82 -104.125 84.5 C-107.27674504 89.05645538 -108.04899293 94.66971688 -109.1875 100 C-104.96810497 97.30133228 -101.22589398 94.43503165 -97.5 91.0625 C-96.56800781 90.22847656 -95.63601563 89.39445312 -94.67578125 88.53515625 C-92.30040831 86.11503532 -90.87858378 83.91117606 -89.1875 81 C-87.60700614 79.08733454 -85.9787469 77.21344262 -84.3125 75.375 C-83.46945312 74.43398437 -82.62640625 73.49296875 -81.7578125 72.5234375 C-77.56339109 68.40551009 -73.90798856 66.4689697 -68.1171875 65.93359375 C-65.10347922 66.03730436 -63.44871171 67.07131943 -61.1875 69 C-59.875 71.1875 -59.875 71.1875 -59.1875 73 C-61.1875 76 -61.1875 76 -63.2109375 76.44140625 C-64.37496094 76.50134766 -64.37496094 76.50134766 -65.5625 76.5625 C-68.92816414 76.74823063 -71.34632963 77.10790143 -74.1875 79 C-75.30624536 80.90407798 -75.30624536 80.90407798 -76.1875 83 C-77.0811664 84.18437716 -77.99960863 85.35032671 -78.9375 86.5 C-84.01109091 93.17314667 -88.72304082 100.40584496 -88.1875 109 C-83.18967804 103.57957834 -78.97434181 97.95183378 -75 91.75 C-68.46417959 81.58501375 -68.46417959 81.58501375 -65.1875 79 C-61.4889996 79.14794002 -59.82944427 79.35805573 -57.1875 82 C-57.41154737 87.60118414 -59.16608172 92.32535285 -62.1875 97 C-63.1775 97.495 -63.1775 97.495 -64.1875 98 C-63.8575 98.66 -63.5275 99.32 -63.1875 100 C-62.69121094 99.55269531 -62.19492187 99.10539062 -61.68359375 98.64453125 C-61.00425781 98.03996094 -60.32492187 97.43539062 -59.625 96.8125 C-58.96371094 96.22082031 -58.30242187 95.62914063 -57.62109375 95.01953125 C-55.1875 93 -55.1875 93 -53.45581055 92.06347656 C-50.32100538 90.27215933 -48.55736964 88.90104574 -47.16137695 85.50024414 C-46.35552325 82.38958146 -45.71677548 79.2833104 -45.125 76.125 C-44.63695122 73.84982188 -44.14088031 71.57634949 -43.63671875 69.3046875 C-43.3948584 68.21124023 -43.15299805 67.11779297 -42.90380859 65.99121094 C-41.3927701 59.68131194 -38.9005157 53.88011666 -36.1875 48 C-35.83171875 47.20142578 -35.4759375 46.40285156 -35.109375 45.58007812 C-14.77625465 0 -14.77625465 0 0 0 Z M-1.1875 9 C-6.37052355 15.19884319 -9.98210075 22.82963657 -13.77416992 29.92773438 C-14.74358182 31.73801469 -15.72581848 33.54091096 -16.70898438 35.34375 C-20.80452581 42.93021912 -24.78126449 50.68653228 -27.1875 59 C-26.8575 59.66 -26.5275 60.32 -26.1875 61 C-16.64813746 50.12130003 -8.95192782 37.5754959 -3.0625 24.375 C-2.77947021 23.74899902 -2.49644043 23.12299805 -2.20483398 22.47802734 C-0.28725405 17.95193473 0.37392861 13.84567898 0.8125 9 C0.1525 9 -0.5075 9 -1.1875 9 Z M-124.1875 88 C-124.1875 91 -124.1875 91 -124.1875 91 Z M-183.6875 113.1875 C-184.6878125 113.96480469 -185.688125 114.74210937 -186.71875 115.54296875 C-189.33874491 118.15052698 -189.93029988 119.37990832 -190.1875 123 C-187.60491772 123.95651196 -186.3224601 124.03620881 -183.625 123.3125 C-180.74029304 121.75919625 -179.68748349 120.9249678 -178.1875 118 C-177.65543566 115.00907524 -177.37529129 112.03056291 -177.1875 109 C-179.46226447 109 -182.04501237 111.89001944 -183.6875 113.1875 Z M-83.26171875 124.0546875 C-93.81799417 134.98172306 -93.81799417 134.98172306 -98.1875 149 C-97.8297386 151.27650745 -97.8297386 151.27650745 -97.1875 153 C-92.75368499 152.24834467 -91.3137257 150.34125409 -88.77734375 146.78515625 C-84.49907372 139.29029991 -81.31830744 130.5409221 -80.1875 122 C-81.55569443 121.88270766 -81.55569443 121.88270766 -83.26171875 124.0546875 Z " fill="#FDFDFD" transform="translate(551.1875,24)"/>
<path d="M0 0 C0.33 0.66 0.66 1.32 1 2 C-0.11654576 4.26940195 -1.44544409 6.3641273 -2.7734375 8.515625 C-4.37288709 11.45354583 -4.37288709 11.45354583 -5 17 C-0.71 17.33 3.58 17.66 8 18 C8.33 18.99 8.66 19.98 9 21 C6.64072311 23.35927689 1.50090608 22.98835102 -1.6875 23.0625 C-4.12582948 23.0625 -6.56209857 23.04414711 -9 23 C-9.10183594 23.83789062 -9.20367187 24.67578125 -9.30859375 25.5390625 C-10.08124445 29.40668124 -11.4543547 32.80051462 -13.0625 36.375 C-13.34416016 37.01566406 -13.62582031 37.65632813 -13.91601562 38.31640625 C-14.60459421 39.88029659 -15.30144711 41.44053941 -16 43 C-17.32 43 -18.64 43 -20 43 C-19.35794837 38.88925136 -18.01360468 35.50762175 -16.26953125 31.73828125 C-15.86017586 30.85223457 -15.86017586 30.85223457 -15.44255066 29.94828796 C-14.86436122 28.70069066 -14.28343883 27.4543567 -13.69995117 26.20922852 C-12.82496173 24.33913417 -11.96170588 22.46395683 -11.09960938 20.58789062 C-7.79637658 13.46094355 -4.22275205 6.62861579 0 0 Z " fill="#F3F3F3" transform="translate(178,61)"/>
<path d="M0 0 C3.3125 -0.25 3.3125 -0.25 7 0 C9 1.75 9 1.75 10 4 C9.86881884 7.93543469 7.1607469 10.85709542 5 14 C4.690625 14.70125 4.38125 15.4025 4.0625 16.125 C2.52289979 18.84194154 0.58555463 20.29731768 -2 22 C-2.99 21.67 -3.98 21.34 -5 21 C-6.00704906 18.69606825 -6.20835326 17.53757444 -5.29296875 15.17578125 C-4.74576172 14.25345703 -4.74576172 14.25345703 -4.1875 13.3125 C-1.84830071 9.01452483 -0.84320625 4.79296184 0 0 Z " fill="#FDFDFD" transform="translate(411,76)"/>
<path d="M0 0 C1.051875 -0.02126953 1.051875 -0.02126953 2.125 -0.04296875 C4 0.1875 4 0.1875 6 2.1875 C6.55275653 7.05175746 5.64188119 10.09684525 3 14.1875 C-0.00112381 17.43315983 -2.45901282 19.99077823 -6.9375 20.5625 C-7.618125 20.43875 -8.29875 20.315 -9 20.1875 C-8.19429304 16.69327615 -7.08208283 13.33432647 -5.9375 9.9375 C-5.57527344 8.85984375 -5.21304687 7.7821875 -4.83984375 6.671875 C-4.56269531 5.85203125 -4.28554688 5.0321875 -4 4.1875 C-4.66 4.1875 -5.32 4.1875 -6 4.1875 C-6 3.1975 -6 2.2075 -6 1.1875 C-3.77109005 0.07304502 -2.46944894 0.02269714 0 0 Z " fill="#FDFDFD" transform="translate(324,77.8125)"/>
<path d="M0 0 C0.93423645 3.01031744 1.04449911 3.86650268 0 7 C-2.0625 8.1875 -2.0625 8.1875 -4 9 C-4.25 6.75 -4.25 6.75 -4 4 C-2 1.6875 -2 1.6875 0 0 Z " fill="#F0F0F0" transform="translate(153,123)"/>
<path d="M0 0 C0.33 0.66 0.66 1.32 1 2 C0.22265625 3.9453125 0.22265625 3.9453125 -0.9375 6.125 C-1.31777344 6.84945312 -1.69804687 7.57390625 -2.08984375 8.3203125 C-2.39019531 8.87460938 -2.69054687 9.42890625 -3 10 C-4.2872642 7.4254716 -4.34791629 5.85291355 -4 3 C-2 1.1875 -2 1.1875 0 0 Z " fill="#DDDDDD" transform="translate(471,155)"/>
</svg>
